<?xml version="1.0" encoding="UTF-8" standalone="no"?>
<svg
   xmlns:dc="http://purl.org/dc/elements/1.1/"
   xmlns:cc="http://creativecommons.org/ns#"
   xmlns:rdf="http://www.w3.org/1999/02/22-rdf-syntax-ns#"
   xmlns:svg="http://www.w3.org/2000/svg"
   xmlns="http://www.w3.org/2000/svg"
   xmlns:sodipodi="http://sodipodi.sourceforge.net/DTD/sodipodi-0.dtd"
   xmlns:inkscape="http://www.inkscape.org/namespaces/inkscape"
   version="1.1"
   x="0px"
   y="0px"
   viewBox="0 0 125 156.25"
   style="enable-background:new 0 0 125 125;"
   xml:space="preserve"
   id="svg4"
   sodipodi:docname="busqueda.svg"
   inkscape:version="0.92.2 5c3e80d, 2017-08-06"><metadata
     id="metadata10"><rdf:RDF><cc:Work
         rdf:about=""><dc:format>image/svg+xml</dc:format><dc:type
           rdf:resource="http://purl.org/dc/dcmitype/StillImage" /><dc:title /></cc:Work></rdf:RDF></metadata><defs
     id="defs8" /><sodipodi:namedview
     pagecolor="#ffffff"
     bordercolor="#666666"
     borderopacity="1"
     objecttolerance="10"
     gridtolerance="10"
     guidetolerance="10"
     inkscape:pageopacity="0"
     inkscape:pageshadow="2"
     inkscape:window-width="1920"
     inkscape:window-height="1006"
     id="namedview6"
     showgrid="false"
     inkscape:zoom="24.1664"
     inkscape:cx="54.989395"
     inkscape:cy="97.20722"
     inkscape:window-x="0"
     inkscape:window-y="0"
     inkscape:window-maximized="1"
     inkscape:current-layer="svg4" /><path
     d="M62.5,105.5c-23.7,0-43-19.3-43-43s19.3-43,43-43s43,19.3,43,43S86.2,105.5,62.5,105.5z M62.5,25.5c-20.4,0-37,16.6-37,37  s16.6,37,37,37s37-16.6,37-37S82.9,25.5,62.5,25.5z M80.7,83.7c-0.8,0-1.6-0.3-2.1-0.9l-9.2-9.2c-1.2-1.1-1.3-3-0.1-4.2  s3-1.3,4.2-0.1c0.1,0,0.1,0.1,0.1,0.1l9.2,9.2c1.2,1.2,1.2,3.1,0,4.2C82.2,83.4,81.5,83.7,80.7,83.7z M60.2,79.2  c-10.4,0-18.9-8.5-18.9-18.9c0-10.4,8.5-18.9,18.9-18.9c10.4,0,18.9,8.5,18.9,18.9c0,0,0,0,0,0C79.1,70.7,70.7,79.1,60.2,79.2z   M60.2,47.3c-7.1,0-12.9,5.8-12.9,12.9s5.8,12.9,12.9,12.9c7.1,0,12.9-5.8,12.9-12.9c0,0,0,0,0,0C73.1,53.1,67.4,47.3,60.2,47.3z"
     id="path2"
     style="fill:#000000;fill-opacity:0" /><path
     style="stroke-width:0.66207629;fill:#ffffff;fill-opacity:1"
     d="M 52.049475,103.80121 C 38.50035,100.25135 26.978379,89.736308 22.302067,76.653489 19.970734,70.131169 19.417671,58.730528 21.114412,52.17161 24.589028,38.740144 35.403142,26.84296 48.237509,22.332043 c 9.190315,-3.230135 19.334667,-3.230135 28.524982,0 13.010079,4.572675 24.039939,16.855338 27.167199,30.252929 1.60932,6.894502 1.05792,17.645591 -1.23442,24.068517 C 95.366976,97.186666 72.856937,109.25275 52.049475,103.80121 Z M 73.787144,97.97976 C 85.25335,93.96628 92.872471,86.729065 97.268571,75.675318 99.469432,70.141369 100.21535,60.756481 98.94187,54.622198 97.769094,48.972967 93.589506,41.154019 89.518359,36.993216 81.804872,29.10985 73.147712,25.392906 62.5,25.392906 c -31.424541,0 -48.509194,36.25895 -28.663418,60.83269 5.03707,6.237076 13.237913,11.140969 21.711617,12.982978 4.123554,0.896376 14.084779,0.225258 18.238945,-1.228814 z"
     id="path20"
     inkscape:connector-curvature="0" /><path
     style="stroke-width:0.11703966"
     d="m 79.889509,83.521171 c -0.306808,-0.08253 -0.596481,-0.185225 -0.643718,-0.228218 -0.04724,-0.04299 -1.831548,-1.823918 -3.965135,-3.957612 l -3.87925,-3.879442 -0.919376,0.588912 c -4.955984,3.174587 -10.95474,3.936098 -16.327384,2.072674 -6.557345,-2.274319 -11.35059,-7.881018 -12.508842,-14.631698 -0.378196,-2.204251 -0.325896,-5.017877 0.132488,-7.127528 1.058105,-4.869794 4.032618,-9.138518 8.297259,-11.907396 1.246515,-0.809317 2.091148,-1.232469 3.539628,-1.773315 3.440949,-1.284811 7.121159,-1.553524 10.615749,-0.775117 8.106907,1.805783 14.241358,8.908575 14.734136,17.05996 0.09853,1.629825 -0.01485,3.674766 -0.27518,4.963238 -0.450283,2.228634 -1.519315,4.855595 -2.680385,6.586577 l -0.544271,0.811428 3.846614,3.870158 c 2.460686,2.47575 3.926233,4.038836 4.067597,4.338319 0.349038,0.739441 0.308481,1.852725 -0.09234,2.534551 -0.417857,0.710813 -1.139946,1.272457 -1.884153,1.465501 -0.709256,0.18398 -0.7908,0.183387 -1.51344,-0.01099 z M 63.135913,72.81403 c 6.170013,-1.520071 10.242138,-6.925945 9.963373,-13.226691 -0.149315,-3.374864 -1.498705,-6.362902 -3.926252,-8.694148 -2.015825,-1.935856 -4.370698,-3.106407 -7.029087,-3.493994 -1.502517,-0.219063 -3.901022,-0.0851 -5.280096,0.294907 -5.486799,1.511903 -9.317172,6.274883 -9.5645,11.893235 -0.163401,3.711848 1.136054,7.1148 3.701679,9.693779 2.078165,2.088982 4.624844,3.350079 7.676936,3.801563 0.824974,0.122037 3.535054,-0.04128 4.457947,-0.268651 z"
     id="path22"
     inkscape:connector-curvature="0" /><path
     style="stroke-width:0.11703966;fill:#ffffff;fill-opacity:1"
     d="m 79.889509,83.521171 c -0.306808,-0.08253 -0.596481,-0.185225 -0.643718,-0.228218 -0.04724,-0.04299 -1.831548,-1.823918 -3.965135,-3.957612 l -3.87925,-3.879442 -0.967145,0.620397 c -4.400499,2.822802 -9.84169,3.743646 -14.772976,2.500112 C 47.764869,76.58515 41.903924,69.59798 41.433039,61.614096 41.08502,55.713409 43.125006,50.56218 47.406537,46.530241 c 4.973132,-4.683223 12.30557,-6.284121 18.761967,-4.096318 2.732412,0.9259 5.153385,2.445053 7.259529,4.555331 1.632974,1.636181 2.715605,3.110486 3.615063,4.92292 1.530642,3.084289 2.13483,6.151165 1.919846,9.745199 -0.182658,3.053619 -1.237485,6.225693 -2.947154,8.862684 l -0.531172,0.819278 3.903794,3.920828 c 3.815897,3.832546 3.908307,3.936382 4.104132,4.611582 0.132085,0.455427 0.175648,0.870866 0.12787,1.219439 -0.147133,1.073448 -1.056171,2.106052 -2.141612,2.432722 -0.646895,0.194686 -0.856682,0.194326 -1.589291,-0.0027 z m -18.168512,-10.4891 c 1.54878,-0.175642 2.639206,-0.509252 4.213428,-1.289078 2.250624,-1.114898 4.062917,-2.758233 5.313446,-4.818083 2.323777,-3.827686 2.496692,-8.724861 0.447164,-12.664313 -1.87846,-3.610637 -5.211348,-6.057279 -9.2718,-6.806343 -1.503599,-0.277381 -3.920249,-0.178366 -5.466432,0.22397 -3.532991,0.919329 -6.711958,3.503279 -8.374971,6.8074 -0.900135,1.788413 -1.382805,4.169707 -1.279073,6.310412 0.232905,4.806467 2.928865,8.892185 7.276826,11.028009 2.301807,1.130704 4.517817,1.50556 7.141412,1.208026 z"
     id="path24"
     inkscape:connector-curvature="0" /></svg>