<?xml version="1.0" encoding="UTF-8" standalone="no"?>
<!-- Generator: Adobe Illustrator 19.0.0, SVG Export Plug-In . SVG Version: 6.00 Build 0)  -->

<svg
   xmlns:dc="http://purl.org/dc/elements/1.1/"
   xmlns:cc="http://creativecommons.org/ns#"
   xmlns:rdf="http://www.w3.org/1999/02/22-rdf-syntax-ns#"
   xmlns:svg="http://www.w3.org/2000/svg"
   xmlns="http://www.w3.org/2000/svg"
   xmlns:sodipodi="http://sodipodi.sourceforge.net/DTD/sodipodi-0.dtd"
   xmlns:inkscape="http://www.inkscape.org/namespaces/inkscape"
   version="1.1"
   id="Capa_1"
   x="0px"
   y="0px"
   viewBox="0 0 415.998 415.998"
   style="enable-background:new 0 0 415.998 415.998;"
   xml:space="preserve"
   sodipodi:docname="hoy_cop.svg"
   inkscape:version="0.92.2 5c3e80d, 2017-08-06"><metadata
     id="metadata97"><rdf:RDF><cc:Work
         rdf:about=""><dc:format>image/svg+xml</dc:format><dc:type
           rdf:resource="http://purl.org/dc/dcmitype/StillImage" /><dc:title /></cc:Work></rdf:RDF></metadata><defs
     id="defs95" /><sodipodi:namedview
     pagecolor="#ffffff"
     bordercolor="#666666"
     borderopacity="1"
     objecttolerance="10"
     gridtolerance="10"
     guidetolerance="10"
     inkscape:pageopacity="0"
     inkscape:pageshadow="2"
     inkscape:window-width="1920"
     inkscape:window-height="1006"
     id="namedview93"
     showgrid="false"
     inkscape:zoom="1.6045962"
     inkscape:cx="215.09014"
     inkscape:cy="172.73602"
     inkscape:window-x="0"
     inkscape:window-y="0"
     inkscape:window-maximized="1"
     inkscape:current-layer="Capa_1" /><g
     id="g6"
     style="fill:#000000;fill-opacity:0.70588237"><g
       id="g4"
       style="fill:#000000;fill-opacity:0.70588237"><circle
         cx="208.239"
         cy="48"
         r="12"
         id="circle2"
         style="fill:#000000;fill-opacity:0.70588237" /></g></g><g
     id="g12"
     style="fill:#000000;fill-opacity:0.70588237"><g
       id="g10"
       style="fill:#000000;fill-opacity:0.70588237"><path
         d="M367.998,95.999c0-17.673-14.326-32-31.999-32h-44.424c-5.926-6.583-13.538-11.62-22.284-14.136    c-7.367-2.118-13.037-7.788-15.156-15.155C248.37,14.664,229.897,0,207.998,0c-21.898,0-40.37,14.663-46.134,34.706    c-2.122,7.376-7.806,13.039-15.182,15.165c-8.736,2.518-16.341,7.55-22.262,14.128H79.999c-17.674,0-32,14.327-32,32v287.999    c0,17.673,14.326,32,32,32c73.466,0,163.758,0,256,0c17.674,0,32-14.327,32-32C367.999,293.119,367.998,206.096,367.998,95.999z     M128,95.741c0.11-14.066,9.614-26.606,23.113-30.496c12.71-3.662,22.477-13.426,26.127-26.116    C181.157,25.51,193.805,16,207.998,16c14.194,0,26.842,9.51,30.758,23.13c3.652,12.698,13.413,22.459,26.111,26.11    c13.618,3.917,23.13,16.566,23.13,30.758v16H128V95.741z M335.999,399.998c-85.455,0-170.77,0-256,0c-8.823,0-16-7.178-16-16    V95.999c0-8.822,7.177-16,16-16h34.742c-1.73,4.892-2.698,10.143-2.74,15.617v32.383h191.998v-32c0-5.615-0.992-10.991-2.764-16    h34.764c8.822,0,15.999,7.178,15.999,16c0,45.743-0.001,260.254,0.002,287.999C351.999,392.82,344.822,399.998,335.999,399.998z"
         id="path8"
         style="fill:#000000;fill-opacity:0.70588237" /></g></g><g
     id="g18"
     style="fill:#000000;fill-opacity:0.70588237"><g
       id="g16"
       style="fill:#000000;fill-opacity:0.70588237"><rect
         x="159.999"
         y="176"
         width="144"
         height="16"
         id="rect14"
         style="fill:#000000;fill-opacity:0.70588237" /></g></g><g
     id="g24"
     style="fill:#000000;fill-opacity:0.70588237"><g
       id="g22"
       style="fill:#000000;fill-opacity:0.70588237"><rect
         x="159.999"
         y="224"
         width="144"
         height="16"
         id="rect20"
         style="fill:#000000;fill-opacity:0.70588237" /></g></g><g
     id="g30"><g
       id="g28"
       style="fill:#000000;fill-opacity:0.70588237"><rect
         x="159.999"
         y="272"
         width="144"
         height="16"
         id="rect26"
         style="fill:#000000;fill-opacity:0.70588237" /></g></g><g
     id="g36"
     style="fill:#000000;fill-opacity:0.70588237"><g
       id="g34"
       style="fill:#000000;fill-opacity:0.70588237"><rect
         x="159.999"
         y="320"
         width="144"
         height="16"
         id="rect32"
         style="fill:#000000;fill-opacity:0.70588237" /></g></g><g
     id="g42"
     style="fill:#000000;fill-opacity:0.70588237"><g
       id="g40"
       style="fill:#000000;fill-opacity:0.70588237"><circle
         cx="119.999"
         cy="184"
         r="8"
         id="circle38"
         style="fill:#000000;fill-opacity:0.70588237" /></g></g><g
     id="g48"
     style="fill:#000000;fill-opacity:0.70588237"><g
       id="g46"
       style="fill:#000000;fill-opacity:0.70588237"><circle
         cx="119.999"
         cy="232"
         r="8"
         id="circle44"
         style="fill:#000000;fill-opacity:0.70588237" /></g></g><g
     id="g54"
     style="fill:#000000;fill-opacity:0.70588237"><g
       id="g52"
       style="fill:#000000;fill-opacity:0.70588237"><circle
         cx="119.999"
         cy="280"
         r="8"
         id="circle50"
         style="fill:#000000;fill-opacity:0.70588237" /></g></g><g
     id="g60"
     style="fill:#000000;fill-opacity:0.70588237"><g
       id="g58"
       style="fill:#000000;fill-opacity:0.70588237"><circle
         cx="119.999"
         cy="328"
         r="8"
         id="circle56"
         style="fill:#000000;fill-opacity:0.70588237" /></g></g><g
     id="g62" /><g
     id="g64" /><g
     id="g66" /><g
     id="g68" /><g
     id="g70" /><g
     id="g72" /><g
     id="g74" /><g
     id="g76" /><g
     id="g78" /><g
     id="g80" /><g
     id="g82" /><g
     id="g84" /><g
     id="g86" /><g
     id="g88" /><g
     id="g90" /></svg>