<?xml version="1.0" encoding="UTF-8" standalone="no"?>
<!-- Generator: Adobe Illustrator 19.0.0, SVG Export Plug-In . SVG Version: 6.00 Build 0)  -->

<svg
   xmlns:dc="http://purl.org/dc/elements/1.1/"
   xmlns:cc="http://creativecommons.org/ns#"
   xmlns:rdf="http://www.w3.org/1999/02/22-rdf-syntax-ns#"
   xmlns:svg="http://www.w3.org/2000/svg"
   xmlns="http://www.w3.org/2000/svg"
   xmlns:sodipodi="http://sodipodi.sourceforge.net/DTD/sodipodi-0.dtd"
   xmlns:inkscape="http://www.inkscape.org/namespaces/inkscape"
   version="1.1"
   id="Capa_1"
   x="0px"
   y="0px"
   viewBox="0 0 447.999 447.999"
   style="enable-background:new 0 0 447.999 447.999;"
   xml:space="preserve"
   sodipodi:docname="proximos.svg"
   inkscape:version="0.92.2 5c3e80d, 2017-08-06"><metadata
     id="metadata133"><rdf:RDF><cc:Work
         rdf:about=""><dc:format>image/svg+xml</dc:format><dc:type
           rdf:resource="http://purl.org/dc/dcmitype/StillImage" /></cc:Work></rdf:RDF></metadata><defs
     id="defs131" /><sodipodi:namedview
     pagecolor="#ffffff"
     bordercolor="#666666"
     borderopacity="1"
     objecttolerance="10"
     gridtolerance="10"
     guidetolerance="10"
     inkscape:pageopacity="0"
     inkscape:pageshadow="2"
     inkscape:window-width="1920"
     inkscape:window-height="1006"
     id="namedview129"
     showgrid="false"
     inkscape:zoom="1.4899784"
     inkscape:cx="198.73566"
     inkscape:cy="205.12965"
     inkscape:window-x="0"
     inkscape:window-y="0"
     inkscape:window-maximized="1"
     inkscape:current-layer="Capa_1" /><g
     id="g6"
     style="fill:#000000;fill-opacity:0.70588237"><g
       id="g4"
       style="fill:#000000;fill-opacity:0.70588237"><path
         d="M296.706,63.999h-44.424c-5.926-6.583-13.538-11.62-22.284-14.136c-7.367-2.118-13.037-7.788-15.156-15.155    C209.077,14.663,190.604,0,168.705,0c-21.898,0-40.37,14.663-46.134,34.706c-2.122,7.376-7.806,13.039-15.182,15.164    c-8.736,2.518-16.341,7.55-22.262,14.129H40.706c-17.674,0-32,14.327-32,32v287.999c0,17.673,14.326,32,32,32h180.03    c-4.041-5.03-7.663-10.393-10.919-16H40.706c-8.823,0-16-7.178-16-16V95.999c0-8.822,7.177-16,16-16h34.742    c-1.73,4.892-2.698,10.143-2.74,15.617v32.383h191.998v-32c0-5.615-0.992-10.991-2.764-16h34.764c8.822,0,15.999,7.178,15.999,16    v80h16v-80C328.705,78.326,314.379,63.999,296.706,63.999z M248.704,111.998H88.707V95.742    c0.11-14.066,9.614-26.606,23.112-30.496c12.71-3.662,22.477-13.426,26.127-26.116C141.864,25.51,154.512,16,168.705,16    c14.194,0,26.842,9.51,30.758,23.13c3.652,12.698,13.413,22.459,26.111,26.11c13.618,3.917,23.13,16.566,23.13,30.758V111.998z"
         id="path2"
         style="fill:#000000;fill-opacity:0.70588237" /></g></g><g
     id="g12"
     style="fill:#000000;fill-opacity:0.70588237"><g
       id="g10"
       style="fill:#000000;fill-opacity:0.70588237"><path
         d="M72.705,207.999v104h48v-104H72.705z M104.705,295.999h-16v-72h16V295.999z"
         id="path8"
         style="fill:#000000;fill-opacity:0.70588237" /></g></g><g
     id="g18"
     style="fill:#000000;fill-opacity:0.70588237"><g
       id="g16"
       style="fill:#000000;fill-opacity:0.70588237"><path
         d="M216.705,159.999v101.389c4.755-6.597,10.106-12.711,16-18.285V176h16v54.098c5.066-3.446,10.454-6.418,16-9.121v-60.978    H216.705z"
         id="path14"
         style="fill:#000000;fill-opacity:0.70588237" /></g></g><g
     id="g24"
     style="fill:#000000;fill-opacity:0.70588237"><g
       id="g22"
       style="fill:#000000;fill-opacity:0.70588237"><path
         d="M144.705,191.999v120h48v-120H144.705z M176.705,295.999h-16v-88h16V295.999z"
         id="path20"
         style="fill:#000000;fill-opacity:0.70588237" /></g></g><g
     id="g30"
     style="fill:#000000;fill-opacity:0.70588237"><g
       id="g28"
       style="fill:#000000;fill-opacity:0.70588237"><rect
         x="72.706"
         y="328"
         width="48"
         height="16"
         id="rect26"
         style="fill:#000000;fill-opacity:0.70588237" /></g></g><g
     id="g36"
     style="fill:#000000;fill-opacity:0.70588237"><g
       id="g34"
       style="fill:#000000;fill-opacity:0.70588237"><rect
         x="144.706"
         y="328"
         width="48"
         height="16"
         id="rect32"
         style="fill:#000000;fill-opacity:0.70588237" /></g></g><g
     id="g42"
     style="fill:#000000;fill-opacity:0.70588237"><g
       id="g40"
       style="fill:#000000;fill-opacity:0.70588237"><circle
         cx="168.946"
         cy="48"
         r="12"
         id="circle38"
         style="fill:#000000;fill-opacity:0.70588237" /></g></g><g
     id="g48"
     style="fill:#000000;fill-opacity:0.70588237"><g
       id="g46"
       style="fill:#000000;fill-opacity:0.70588237"><path
         d="M416.666,251.146l11.314,11.314l11.314-11.314l-33.942-33.941l-11.314,11.314l11.314,11.314l-11.584,11.584    c-17.757-15.395-40.372-25.249-65.269-27.013v-16.404h16v-16h-48v16h16v16.404c-58.106,4.117-104,52.442-104,111.596    c0,61.855,50.145,112,112,112c61.857,0,112-50.145,112-112c0-28.047-10.381-53.621-27.417-73.27L416.666,251.146z     M416.499,335.999c0,52.934-43.066,96-96,96s-96-43.066-96-96s43.066-96,96-96S416.499,283.065,416.499,335.999z"
         id="path44"
         style="fill:#000000;fill-opacity:0.70588237" /></g></g><g
     id="g54"
     style="fill:#000000;fill-opacity:0.70588237"><g
       id="g52"
       style="fill:#000000;fill-opacity:0.70588237"><rect
         x="303.974"
         y="301.816"
         transform="matrix(0.7071 -0.7071 0.7071 0.7071 -117.4736 335.8895)"
         width="85.487"
         height="15.864"
         id="rect50"
         style="fill:#000000;fill-opacity:0.70588237" /></g></g><g
     id="g60"
     style="fill:#000000;fill-opacity:0.70588237"><g
       id="g58"
       style="fill:#000000;fill-opacity:0.70588237"><circle
         cx="320.602"
         cy="264.24"
         r="8.104"
         id="circle56"
         style="fill:#000000;fill-opacity:0.70588237" /></g></g><g
     id="g66"
     style="fill:#000000;fill-opacity:0.70588237"><g
       id="g64"
       style="fill:#000000;fill-opacity:0.70588237"><circle
         cx="269.522"
         cy="285.16"
         r="8.104"
         id="circle62"
         style="fill:#000000;fill-opacity:0.70588237" /></g></g><g
     id="g72"
     style="fill:#000000;fill-opacity:0.70588237"><g
       id="g70"
       style="fill:#000000;fill-opacity:0.70588237"><circle
         cx="248.426"
         cy="336.08"
         r="8.104"
         id="circle68"
         style="fill:#000000;fill-opacity:0.70588237" /></g></g><g
     id="g78"
     style="fill:#000000;fill-opacity:0.70588237"><g
       id="g76"
       style="fill:#000000;fill-opacity:0.70588237"><circle
         cx="269.522"
         cy="386.96"
         r="8.104"
         id="circle74"
         style="fill:#000000;fill-opacity:0.70588237" /></g></g><g
     id="g84"
     style="fill:#000000;fill-opacity:0.70588237"><g
       id="g82"
       style="fill:#000000;fill-opacity:0.70588237"><circle
         cx="320.426"
         cy="408.08"
         r="8.104"
         id="circle80"
         style="fill:#000000;fill-opacity:0.70588237" /></g></g><g
     id="g90"
     style="fill:#000000;fill-opacity:0.70588237"><g
       id="g88"
       style="fill:#000000;fill-opacity:0.70588237"><circle
         cx="371.346"
         cy="386.96"
         r="8.104"
         id="circle86"
         style="fill:#000000;fill-opacity:0.70588237" /></g></g><g
     id="g96"
     style="fill:#000000;fill-opacity:0.70588237"><g
       id="g94"
       style="fill:#000000;fill-opacity:0.70588237"><circle
         cx="392.426"
         cy="336.08"
         r="8.104"
         id="circle92"
         style="fill:#000000;fill-opacity:0.70588237" /></g></g><g
     id="g98" /><g
     id="g100" /><g
     id="g102" /><g
     id="g104" /><g
     id="g106" /><g
     id="g108" /><g
     id="g110" /><g
     id="g112" /><g
     id="g114" /><g
     id="g116" /><g
     id="g118" /><g
     id="g120" /><g
     id="g122" /><g
     id="g124" /><g
     id="g126" /></svg>